{"title":"Coma *1978* [DVD5][NTSC][ENG, POL]","uid":6035856,"size":4673667072,"categoryP":"video","categoryS":"movies_dvdr","magnet":"?xt=urn:btih:5db644b3eaa5f265865ec9b1c41daa88af96b782&amp;dn=Coma+%2A1978%2A+%5BDVD5%5D%5BNTSC%5D%5BENG%2C+POL%5D+&amp;tr=udp%3A%2F%2Ftracker.openbittorrent.com%3A80&amp;tr=udp%3A%2F%2Fopen.demonii.com%3A1337&amp;tr=udp%3A%2F%2Ftracker.coppersurfer.tk%3A6969&amp;tr=udp%3A%2F%2Fexodus.desync.com%3A6969","seeders":1,"leechers":0,"uploader":"albedo040","files":1,"time":1292230870,"description":"Coma *1978* [DVD5][NTSC][ENG, POL] \n\nGeneral information:\nCountry: USA\nRelease: 6 January 1978\nGenre: Thriller, Mystery \nDirector: Michael Crichton\nScreenplay: Michael Crichton\nOriginal Music: Jerry Goldsmith \nCinematography by: Victor J. Kemper\nDuration: 1h 52mn\nLanguage: English, Polish\nSubtitles: English, Polish\nRating: 7.9/10 - 1382 votes \n\nCast:\nGenevieve Bujold  ...  Dr. Susan Wheeler (as Genevieve Bujold)  \nMichael Douglas  ...  Dr. Mark Bellows  \nElizabeth Ashley  ...  Mrs. Emerson  \nRip Torn  ...  Dr. George  \nRichard Widmark  ...  Dr. Harris  \nLois Chiles  ...  Nancy Greenly  \nHari Rhodes  ...  Dr. Morelind (as Harry Rhodes)  \nGary Barton  ...  Computer Technician  \nFrank Downing  ...  Kelly  \nRichard Doyle  ...  Jim  \nAlan Haufrect  ...  Dr. Marcus  \nLance LeGault  ...  Vince (as Lance Le Gault)  \nMichael MacRae  ...  Chief Resident  \nBetty McGuire  ...  Nurse  \nTom Selleck  ...  Sean Murphy  \n\nPlot:\nA young woman doctor discovers something sinister going on in her hospital. Relatively healthy patients are having 'complications' during simple operations and ending up in comas...\n\nSpecifications:\nGeneral\nFormat                           : MPEG-PS\nOverall bit rate                 : 5 546 Kbps\n\nVideo\nFormat                           : MPEG Video\nFormat version                   : Version 2\nFormat profile                   : Main@Main\nFormat settings, BVOP            : Yes\nFormat settings, Matrix          : Default\nFormat settings, GOP             : M=3, N=12\nBit rate mode                    : Variable\nBit rate                         : 4 796 Kbps\nNominal bit rate                 : 7 500 Kbps\nWidth                            : 720 pixels\nHeight                           : 480 pixels\nDisplay aspect ratio             : 16:9\nFrame rate                       : 23.976 fps\nStandard                         : NTSC\n\nAudio 1\nFormat                           : AC-3\nFormat/Info                      : Audio Coding 3\nFormat profile                   : Dolby Digital\nMode extension                   : CM (complete main)\nBit rate mode                    : Constant\nBit rate                         : 192 Kbps\nChannel(s)                       : 2 channels\nChannel positions                : Front: L R\nSampling rate                    : 48.0 KHz\nVideo delay                      : -66ms\nStream size                      : 35.4 MiB (3%)\n\nAudio 2\nFormat                           : AC-3\nFormat/Info                      : Audio Coding 3\nMode extension                   : CM (complete main)\nBit rate mode                    : Constant\nBit rate                         : 448 Kbps\nChannel(s)                       : 2 channels\nChannel positions                : Front: L R\nSampling rate                    : 48.0 KHz\nVideo delay                      : -66ms\nStream size                      : 82.7 MiB (8%)\n\nText 1\nFormat                           : EIA-608\nMuxing mode                      : MPEG Video / DVD-Video\nMuxing mode, more info           : Muxed in Video 1\n\nText 2\nFormat                           : RLE\nFormat/Info                      : Run-length encoding\n","torrent":{"xt":"urn:btih:5db644b3eaa5f265865ec9b1c41daa88af96b782","amp;dn":"Coma+%2A1978%2A+%5BDVD5%5D%5BNTSC%5D%5BENG%2C+POL%5D+","amp;tr":["udp%3A%2F%2Ftracker.openbittorrent.com%3A80","udp%3A%2F%2Fopen.demonii.com%3A1337","udp%3A%2F%2Ftracker.coppersurfer.tk%3A6969","udp%3A%2F%2Fexodus.desync.com%3A6969"],"infoHash":"5db644b3eaa5f265865ec9b1c41daa88af96b782","infoHashBuffer":{"type":"Buffer","data":[93,182,68,179,234,165,242,101,134,94,201,177,196,29,170,136,175,150,183,130]},"announce":[],"urlList":[]}}